HIERARCHY
ROOT Hips
{
	OFFSET 53.336601 -4.827735 91.603798
	CHANNELS 6 Xposition Yposition Zposition Xrotation Yrotation Zrotation
	JOINT spine
	{
		OFFSET 0.000000 -0.393702 6.846367
		CHANNELS 3 Xrotation Yrotation Zrotation
		JOINT spine1
		{
			OFFSET 0.000000 -0.000001 9.496208
			CHANNELS 3 Xrotation Yrotation Zrotation
			JOINT spine2
			{
				OFFSET 0.000000 -0.000001 9.099091
				CHANNELS 3 Xrotation Yrotation Zrotation
				JOINT Neck
				{
					OFFSET 0.000000 -1.113784 23.361198
					CHANNELS 3 Xrotation Yrotation Zrotation
					JOINT Head
					{
						OFFSET 0.000000 -0.000001 7.058014
						CHANNELS 3 Xrotation Yrotation Zrotation
						End Site
						{
							OFFSET 0.000000 5.634187 17.084396
						}
					}
				}
				JOINT RightShoulder
				{
					OFFSET -3.831360 0.533490 9.826309
					CHANNELS 3 Xrotation Yrotation Zrotation
					JOINT RightArm
					{
						OFFSET 0.000000 -0.000002 12.888100
						CHANNELS 3 Xrotation Yrotation Zrotation
						JOINT RightArmRoll
						{
							OFFSET 0.000000 -0.000001 6.506165
							CHANNELS 3 Xrotation Yrotation Zrotation
							JOINT RightForeArm
							{
								OFFSET 0.000000 -0.000003 18.950104
								CHANNELS 3 Xrotation Yrotation Zrotation
								JOINT RightForeArmRoll
								{
									OFFSET 0.000000 -0.000001 7.300934
									CHANNELS 3 Xrotation Yrotation Zrotation
									JOINT RightHand
									{
										OFFSET 0.000000 -0.000002 14.651398
										CHANNELS 3 Xrotation Yrotation Zrotation
										End Site
										{
											OFFSET 0.000000 0.000000 0.100006
										}
									}
								}
							}
						}
					}
				}
				JOINT LeftShoulder
				{
					OFFSET 3.831360 0.533490 9.826309
					CHANNELS 3 Xrotation Yrotation Zrotation
					JOINT LeftArm
					{
						OFFSET 0.000000 -0.000002 12.888100
						CHANNELS 3 Xrotation Yrotation Zrotation
						JOINT LeftArmRoll
						{
							OFFSET 0.000000 -0.000001 6.506165
							CHANNELS 3 Xrotation Yrotation Zrotation
							JOINT LeftForeArm
							{
								OFFSET 0.000000 -0.000003 18.950104
								CHANNELS 3 Xrotation Yrotation Zrotation
								JOINT LeftForeArmRoll
								{
									OFFSET 0.000000 -0.000001 7.300934
									CHANNELS 3 Xrotation Yrotation Zrotation
									JOINT LeftHand
									{
										OFFSET 0.000000 -0.000002 14.651398
										CHANNELS 3 Xrotation Yrotation Zrotation
										End Site
										{
											OFFSET 0.000000 0.000000 0.100006
										}
									}
								}
							}
						}
					}
				}
			}
		}
	}
	JOINT RightUpLeg
	{
		OFFSET -6.068371 0.933477 -1.112778
		CHANNELS 3 Xrotation Yrotation Zrotation
		JOINT RightUpLegRoll
		{
			OFFSET 0.000000 -0.000003 17.179604
			CHANNELS 3 Xrotation Yrotation Zrotation
			JOINT RightLeg
			{
				OFFSET 0.000000 0.000004 -21.274300
				CHANNELS 3 Xrotation Yrotation Zrotation
				JOINT RightLegRoll
				{
					OFFSET 0.000000 -0.000004 21.343903
					CHANNELS 3 Xrotation Yrotation Zrotation
					JOINT RightFoot
					{
						OFFSET 0.000000 -0.000003 17.765198
						CHANNELS 3 Xrotation Yrotation Zrotation
						JOINT RightToeBase
						{
							OFFSET 0.000000 -0.000002 14.850807
							CHANNELS 3 Xrotation Yrotation Zrotation
							End Site
							{
								OFFSET 0.006294 0.829004 7.192139
							}
						}
					}
				}
			}
		}
	}
	JOINT LeftUpLeg
	{
		OFFSET 6.068371 0.933477 -1.112778
		CHANNELS 3 Xrotation Yrotation Zrotation
		JOINT LeftUpLegRoll
		{
			OFFSET 0.000000 -0.000003 17.179703
			CHANNELS 3 Xrotation Yrotation Zrotation
			JOINT LeftLeg
			{
				OFFSET 0.000000 -0.000003 21.274193
				CHANNELS 3 Xrotation Yrotation Zrotation
				JOINT LeftLegRoll
				{
					OFFSET 0.000000 -0.000004 21.541199
					CHANNELS 3 Xrotation Yrotation Zrotation
					JOINT LeftFoot
					{
						OFFSET 0.000000 -0.000003 17.567902
						CHANNELS 3 Xrotation Yrotation Zrotation
						JOINT LeftToeBase
						{
							OFFSET 0.000000 -0.000002 14.850800
							CHANNELS 3 Xrotation Yrotation Zrotation
							End Site
							{
								OFFSET -0.028210 0.829004 7.192123
							}
						}
					}
				}
			}
		}
	}
}
MOTION
Frames: 8
Frame Time: 0.041667
54.202099 -5.233197 91.447906 6.141392 4.599665 -0.771696 -3.981868 1.147095 0.423820 -3.971035 2.267518 0.918776 -2.325510 2.278362 0.892133 28.283228 -33.288293 1.260766 -1.884090 15.905731 -1.850960 -25.509298 -16.129567 -33.054243 -135.304231 -192.889637 -80.517596 0.000000 0.000000 -0.000004 13.115289 9.834548 -0.951977 -0.000001 -0.000002 -2.999989 -5.000242 -7.998998 0.000141 11.456928 63.433606 -12.525227 -35.572055 107.316383 7.574636 0.000001 0.000012 0.000004 0.057619 6.828647 0.314400 -0.000005 -0.000025 3.030460 -5.000230 7.998740 -0.000171 -7.739721 -181.550758 -2.963573 179.999991 -0.000005 -0.874000 175.984100 -1.631988 -0.163554 0.000002 -0.000005 0.039749 69.231344 6.895983 2.093578 25.456957 -7.355615 0.000010 -8.642417 168.135324 -1.978315 -0.000005 -0.000004 -0.897673 -7.730687 1.619019 0.328055 -0.000003 0.000002 -0.151382 70.596473 -6.853888 -2.115234 25.456955 7.355612 -0.000009 
54.188705 -5.235225 91.450806 6.150585 4.601654 -0.779544 -3.986919 1.152315 0.424941 -3.981231 2.277855 0.920973 -2.335705 2.288738 0.894169 28.261562 -33.234666 1.226887 -1.821227 15.813210 -1.877188 -25.518651 -15.982118 -33.083688 -135.205480 -193.093860 -80.332423 -0.000001 0.000003 -0.000004 13.231617 9.865068 -0.953970 -0.000001 -0.000002 -2.999990 -5.000243 -7.998998 0.000140 11.422203 63.496949 -12.474296 -35.732128 107.254652 7.756970 0.000000 0.000012 0.000001 0.057602 6.860438 0.319104 -0.000004 -0.000027 3.031100 -5.000229 7.998743 -0.000174 -7.749964 -181.558654 -2.969047 179.999991 -0.000004 -0.874000 175.979865 -1.628982 -0.163464 0.000002 -0.000005 0.039734 69.230483 6.895942 2.093626 25.456953 -7.355615 0.000010 -8.638725 168.129286 -1.980062 -0.000005 -0.000004 -0.897531 -7.715715 1.617659 0.327278 -0.000003 0.000003 -0.151522 70.594021 -6.853895 -2.115187 25.456955 7.355613 -0.000010 
54.186005 -5.240823 91.452202 6.159556 4.603316 -0.787994 -3.991896 1.157516 0.425977 -3.991308 2.288163 0.922977 -2.345781 2.299064 0.896007 28.235939 -33.178091 1.190835 -1.753114 15.719004 -1.904618 -25.526215 -15.833564 -33.110537 -135.105991 -193.291580 -80.150474 0.000000 0.000001 -0.000005 13.350446 9.893952 -0.956042 -0.000001 -0.000001 -2.999990 -5.000242 -7.998999 0.000141 11.383777 63.559958 -12.419260 -35.895612 107.193528 7.944105 0.000002 0.000013 0.000003 0.057585 6.893176 0.324026 -0.000004 -0.000027 3.031758 -5.000231 7.998742 -0.000172 -7.760190 -181.565553 -2.974444 179.999991 -0.000005 -0.874000 175.975589 -1.625989 -0.163376 0.000002 -0.000005 0.039718 69.229534 6.895964 2.093588 25.456955 -7.355614 0.000010 -8.634285 168.123221 -1.981804 -0.000005 -0.000005 -0.897394 -7.700014 1.616372 0.326487 -0.000003 0.000003 -0.151659 70.591255 -6.853866 -2.115251 25.456955 7.355613 -0.000010 
54.175903 -5.242476 91.460709 6.168185 4.604635 -0.796919 -3.996785 1.162676 0.426934 -4.001185 2.298381 0.924816 -2.355655 2.309309 0.897680 28.206694 -33.120574 1.153181 -1.680174 15.625810 -1.932996 -25.532342 -15.684619 -33.135006 -135.006038 -193.484069 -79.970737 -0.000001 0.000002 -0.000005 13.471168 9.921327 -0.958186 -0.000001 -0.000001 -2.999990 -5.000241 -7.998998 0.000142 11.342386 63.622686 -12.360929 -36.060154 107.133710 8.133243 0.000001 0.000013 0.000004 0.057571 6.926585 0.329094 -0.000005 -0.000026 3.032427 -5.000230 7.998743 -0.000174 -7.770221 -181.572465 -2.979573 179.999991 -0.000005 -0.873002 175.971341 -1.623977 -0.163355 0.000002 -0.000005 0.039703 69.228591 6.895990 2.093450 25.456952 -7.355615 0.000010 -8.628970 168.118099 -1.983654 -0.000005 -0.000004 -0.897268 -7.683612 1.615106 0.325680 -0.000003 0.000003 -0.151784 70.588154 -6.853833 -2.115237 25.456953 7.355613 -0.000009 
54.166603 -5.243947 91.461990 6.176341 4.605627 -0.806194 -4.001542 1.167777 0.427821 -4.010801 2.308478 0.926524 -2.365259 2.319434 0.899222 28.173999 -33.064010 1.114415 -1.602847 15.536310 -1.962054 -25.537541 -15.536117 -33.157990 -134.905675 -193.672596 -79.794375 -0.000001 -0.000000 -0.000005 13.592976 9.947315 -0.960379 -0.000001 -0.000001 -2.999989 -5.000243 -7.999000 0.000141 11.298683 63.684971 -12.300086 -36.225254 107.075127 8.323694 0.000000 0.000012 0.000002 0.057561 6.960396 0.334233 -0.000002 -0.000027 3.033089 -5.000228 7.998741 -0.000170 -7.779892 -181.579350 -2.984391 179.999991 -0.000005 -0.873002 175.967133 -1.620985 -0.163265 0.000002 -0.000005 0.039688 69.227635 6.895976 2.093509 25.456959 -7.355615 0.000010 -8.622775 168.111979 -1.985280 -0.000005 -0.000004 -0.897159 -7.666501 1.613833 0.324857 -0.000003 0.000003 -0.151890 70.584534 -6.853826 -2.115360 25.456955 7.355613 -0.000010 
54.157604 -5.246696 91.444702 6.183890 4.606288 -0.815694 -4.006132 1.172778 0.428641 -4.020066 2.318407 0.928131 -2.374524 2.329380 0.900662 28.138267 -33.010270 1.075405 -1.521546 15.453313 -1.991544 -25.542044 -15.388947 -33.179843 -134.805572 -193.858636 -79.620471 -0.000001 0.000001 -0.000005 13.715261 9.972041 -0.962614 -0.000000 -0.000002 -2.999990 -5.000243 -7.998999 0.000141 11.253479 63.746948 -12.237609 -36.392286 107.016852 8.516565 0.000000 0.000013 0.000003 0.057554 6.994316 0.339361 -0.000004 -0.000026 3.033739 -5.000228 7.998740 -0.000173 -7.789038 -181.585251 -2.988986 179.999991 -0.000005 -0.873002 175.962953 -1.618973 -0.163241 0.000002 -0.000005 0.039673 69.226686 6.896000 2.093373 25.456957 -7.355615 0.000009 -8.615508 168.107785 -1.987111 -0.000004 -0.000004 -0.897073 -7.648719 1.612502 0.324018 -0.000002 0.000002 -0.151970 70.580702 -6.853817 -2.115293 25.456957 7.355615 -0.000010 
54.159603 -5.246527 91.450600 6.190707 4.606626 -0.825291 -4.010529 1.177670 0.429402 -4.028932 2.328109 0.929669 -2.383378 2.339108 0.902037 28.099470 -32.961386 1.036461 -1.436669 15.379592 -2.021251 -25.546342 -15.243777 -33.201048 -134.705701 -194.043502 -79.450174 -0.000001 0.000000 -0.000005 13.837320 9.995634 -0.964895 -0.000000 -0.000002 -2.999990 -5.000243 -7.998998 0.000141 11.207466 63.808556 -12.174326 -36.556979 106.960421 8.707097 0.000001 0.000013 0.000001 0.057548 7.028085 0.344399 -0.000004 -0.000026 3.034348 -5.000233 7.998743 -0.000172 -7.797483 -181.591180 -2.993178 179.999991 -0.000005 -0.873002 175.958896 -1.616976 -0.163216 0.000002 -0.000005 0.039657 69.225736 6.895987 2.093327 25.456952 -7.355615 0.000010 -8.607154 168.103578 -1.988795 -0.000004 -0.000004 -0.897016 -7.630256 1.611075 0.323162 -0.000003 0.000002 -0.152016 70.576352 -6.853834 -2.115266 25.456957 7.355614 -0.000010 
54.150803 -5.249716 91.442703 6.196668 4.606633 -0.834861 -4.014684 1.182431 0.430112 -4.037306 2.337551 0.931166 -2.391750 2.348564 0.903377 28.058064 -32.919145 0.998242 -1.348644 15.317958 -2.050980 -25.550879 -15.101564 -33.222388 -134.606704 -194.228532 -79.281414 -0.000001 -0.000001 -0.000005 13.958545 10.018220 -0.967210 -0.000000 -0.000002 -2.999989 -5.000244 -7.998998 0.000141 11.161438 63.869830 -12.111109 -36.718533 106.905663 8.894032 -0.000001 0.000012 0.000002 0.057547 7.061405 0.349274 -0.000004 -0.000026 3.034930 -5.000230 7.998740 -0.000173 -7.805066 -181.597094 -2.996923 179.999991 -0.000005 -0.873002 175.954935 -1.614965 -0.163186 0.000002 -0.000005 0.039642 69.224801 6.896010 2.093190 25.456955 -7.355615 0.000010 -8.597628 168.099329 -1.990304 -0.000005 -0.000005 -0.896992 -7.611133 1.609511 0.322289 -0.000003 0.000003 -0.152020 70.571673 -6.853816 -2.115349 25.456955 7.355614 -0.000009 
